<svg width="582" height="975" viewBox="0 0 582 975" fill="none" xmlns="http://www.w3.org/2000/svg">
<g clip-path="url(#clip0)">
<path d="M387.28 473.51C367.9 476.25 348.5 475.66 329.09 471.72C309.68 467.78 290.84 459.87 272.59 447.98C254.33 436.09 237.85 418.97 223.15 396.62L194.26 435.63C189.7 453.12 186.04 468.67 183.29 482.28C182.86 484.4 182.5 486.44 182.16 488.43C212.25 534.08 241.67 574.64 261.82 601.58C274.89 619.06 301.07 619.06 314.14 601.58C336.95 571.07 371.65 523.13 405.75 470.08C399.73 471.46 393.58 472.62 387.28 473.51Z" fill="#53392F"/>
<path d="M401.76 107.58C391.93 129.23 380.84 151.21 368.51 173.53C356.17 195.85 343.16 218.12 329.47 240.36C315.78 262.6 301.59 284.59 286.9 306.34C272.21 328.09 257.58 349.04 243.01 369.18C259.18 384.94 275.82 396.62 292.93 404.2C310.03 411.79 327.14 416.39 344.25 418.01C361.36 419.62 378.31 418.66 395.09 415.09C411.87 411.53 427.92 406.53 443.22 400.08C445.34 399.19 447.59 398.2 449.9 397.17C486 333.13 513.82 269.59 513.82 225.82C513.82 153.02 479.36 88.27 425.87 46.97C419.19 66.68 411.16 86.87 401.76 107.58Z" fill="#007A54"/>
<path d="M157.91 429.53L160.8 414.69C165.78 390.02 170.99 363.06 176.42 333.78C181.85 304.52 186.41 274.9 190.09 244.94C193.77 214.98 196.08 185.54 197.02 156.6C197.96 127.67 196.49 101.05 192.61 76.73L192.47 76.4C192.27 74.67 193.47 73.26 196.06 72.17C198.65 71.08 201.95 70.28 205.97 69.75C209.99 69.23 214.31 68.96 218.95 68.96C223.58 68.96 228.04 69.16 232.32 69.56C236.6 69.97 240.37 70.59 243.63 71.41C246.89 72.24 248.92 73.27 249.7 74.5C253.15 92.77 254.71 112.35 254.36 133.25C254.02 154.15 252.43 175.57 249.62 197.51C246.8 219.46 243.04 241.53 238.35 263.74C233.65 285.95 228.57 307.55 223.1 328.54C237.24 305.47 251.14 281.85 264.81 257.67C278.48 233.5 291.53 209.59 303.96 185.93C316.39 162.28 327.85 139.29 338.33 116.98C348.81 94.66 358.05 73.65 366.05 53.94C371.04 41.65 375.41 30.08 379.19 19.2C351.3 6.86 320.45 0 287.99 0C163.27 0 62.16 101.11 62.16 225.83C62.16 279.23 103.57 362.07 150.92 439.34L157.91 429.53Z" fill="#00B37B"/>
<path d="M56.79 848.2C48.06 848.2 43.69 843.7 43.69 834.69V713.92C43.69 705.05 48.06 700.62 56.79 700.62C65.52 700.62 69.89 705.06 69.89 713.92V766.12H70.3L129.05 707.17C131.23 704.99 133.42 703.35 135.6 702.26C137.78 701.17 140.24 700.62 142.97 700.62C146.93 700.62 149.76 701.64 151.46 703.69C153.17 705.74 153.85 708.13 153.51 710.85C153.17 713.58 151.84 716.1 149.52 718.42L95.69 771.64L152.39 829.16C155.26 831.89 156.76 834.76 156.89 837.76C157.02 840.76 156.1 843.26 154.13 845.23C152.15 847.21 149.25 848.2 145.43 848.2C142.15 848.2 139.53 847.52 137.55 846.15C135.57 844.79 133.28 842.81 130.69 840.21L70.3 779.83H69.89V834.69C69.89 843.7 65.53 848.2 56.79 848.2Z" fill="#007A54"/>
<path d="M195.16 726C190.38 726 186.66 724.81 184 722.42C181.34 720.03 180.01 716.72 180.01 712.49C180.01 708.12 181.34 704.78 184 702.46C186.66 700.14 190.38 698.98 195.16 698.98C205.26 698.98 210.31 703.48 210.31 712.49C210.31 721.49 205.26 726 195.16 726ZM195.16 847.99C191.07 847.99 187.93 846.76 185.74 844.31C183.56 841.85 182.47 838.44 182.47 834.08V758.96C182.47 749.68 186.7 745.04 195.16 745.04C203.76 745.04 208.06 749.68 208.06 758.96V834.08C208.06 838.45 206.97 841.86 204.79 844.31C202.6 846.77 199.39 847.99 195.16 847.99Z" fill="#007A54"/>
<path d="M273.35 848.2C266.25 848.2 261.34 844.65 258.61 837.56L228.93 761.82C227.15 757.05 227.26 753.02 229.24 749.74C231.22 746.46 234.73 744.83 239.78 744.83C242.78 744.83 245.24 745.55 247.15 746.98C249.06 748.41 250.7 751.11 252.06 755.07L274.58 816.68L297.71 753.43C299.89 747.7 303.78 744.83 309.38 744.83C315.11 744.83 319 747.7 321.05 753.43L344.18 817.29L366.9 754.45C368.26 750.77 370 748.24 372.12 746.88C374.23 745.52 376.59 744.83 379.18 744.83C384.09 744.83 387.3 746.57 388.8 750.05C390.3 753.53 390.16 757.45 388.39 761.82L358.91 837.56C356.04 844.66 351.13 848.2 344.17 848.2C336.94 848.2 332.02 844.65 329.43 837.56L308.55 782.09L288.08 837.36C285.5 844.59 280.58 848.2 273.35 848.2Z" fill="#007A54"/>
<path d="M421.96 726C417.18 726 413.46 724.81 410.8 722.42C408.14 720.03 406.81 716.72 406.81 712.49C406.81 708.12 408.14 704.78 410.8 702.46C413.46 700.14 417.18 698.98 421.96 698.98C432.06 698.98 437.11 703.48 437.11 712.49C437.11 721.49 432.06 726 421.96 726ZM421.96 847.99C417.87 847.99 414.73 846.76 412.54 844.31C410.36 841.85 409.27 838.44 409.27 834.08V758.96C409.27 749.68 413.5 745.04 421.96 745.04C430.56 745.04 434.86 749.68 434.86 758.96V834.08C434.86 838.45 433.77 841.86 431.59 844.31C429.4 846.77 426.19 847.99 421.96 847.99Z" fill="#007A54"/>
<path d="M498.1 848.61C492.23 848.61 486.02 848 479.47 846.77C472.92 845.54 467.05 843.43 461.87 840.42C459 838.78 457.23 836.77 456.55 834.38C455.87 831.99 455.97 829.74 456.86 827.63C457.75 825.52 459.25 823.98 461.36 823.02C463.47 822.07 465.97 822.27 468.83 823.63C474.29 826.22 479.4 828.03 484.18 829.05C488.95 830.07 493.66 830.59 498.3 830.59C504.85 830.59 509.73 829.46 512.94 827.21C516.14 824.96 517.75 821.99 517.75 818.31C517.75 812.58 513.52 808.89 505.06 807.26L484.59 803.37C467.26 800.1 458.59 791.09 458.59 776.35C458.59 769.8 460.4 764.14 464.01 759.36C467.62 754.59 472.64 750.9 479.05 748.31C485.46 745.72 492.83 744.42 501.16 744.42C513.17 744.42 523.88 747.08 533.3 752.4C535.89 753.77 537.43 755.64 537.91 758.03C538.39 760.42 538.11 762.67 537.09 764.78C536.07 766.9 534.46 768.4 532.28 769.28C530.1 770.17 527.57 769.93 524.71 768.56C520.48 766.38 516.42 764.81 512.53 763.85C508.64 762.9 504.92 762.42 501.37 762.42C494.68 762.42 489.73 763.58 486.53 765.9C483.32 768.22 481.72 771.29 481.72 775.11C481.72 781.12 485.61 784.8 493.39 786.16L513.86 790.05C522.73 791.69 529.45 794.69 534.02 799.06C538.59 803.43 540.88 809.29 540.88 816.66C540.88 826.62 536.99 834.44 529.21 840.1C521.44 845.78 511.07 848.61 498.1 848.61Z" fill="#007A54"/>
<path d="M5.22 960.32C1.74 960.32 0 958.58 0 955.1V911.4C0 907.92 1.74 906.18 5.22 906.18H20.12C29.18 906.18 36.18 908.51 41.12 913.17C46.06 917.83 48.53 924.51 48.53 933.21C48.53 941.86 46.06 948.54 41.12 953.25C36.18 957.96 29.18 960.31 20.12 960.31H5.22V960.32ZM9.83 952.18H19.51C32 952.18 38.25 945.86 38.25 933.21C38.25 920.62 32 914.32 19.51 914.32H9.83V952.18Z" fill="#53392F"/>
<path d="M76.1 961.09C71.85 961.09 68.19 960.3 65.12 958.71C62.05 957.12 59.68 954.87 58.02 951.95C56.36 949.03 55.52 945.58 55.52 941.58C55.52 937.69 56.33 934.29 57.94 931.37C59.55 928.45 61.78 926.16 64.62 924.5C67.46 922.84 70.7 922 74.33 922C79.65 922 83.86 923.69 86.96 927.07C90.06 930.45 91.61 935.06 91.61 940.89C91.61 942.78 90.38 943.73 87.92 943.73H64.73C65.45 950.44 69.29 953.79 76.25 953.79C77.58 953.79 79.08 953.62 80.74 953.29C82.4 952.96 83.98 952.38 85.46 951.56C86.79 950.79 87.92 950.55 88.84 950.83C89.76 951.11 90.41 951.66 90.8 952.48C91.18 953.3 91.23 954.21 90.95 955.21C90.67 956.21 89.94 957.07 88.76 957.78C86.97 958.91 84.91 959.74 82.58 960.28C80.26 960.82 78.09 961.09 76.1 961.09ZM74.71 928.53C71.89 928.53 69.62 929.4 67.88 931.14C66.14 932.88 65.09 935.24 64.73 938.2H83.62C83.41 935.08 82.56 932.68 81.05 931.02C79.54 929.36 77.43 928.53 74.71 928.53Z" fill="#53392F"/>
<path d="M112.03 961.09C103.48 961.09 99.21 956.3 99.21 946.73V910.41C99.21 907.18 100.8 905.57 103.97 905.57C107.2 905.57 108.81 907.18 108.81 910.41V946.27C108.81 950.88 110.73 953.18 114.57 953.18C114.98 953.18 115.36 953.17 115.72 953.14C116.08 953.11 116.44 953.08 116.8 953.02C117.52 952.92 118 953.11 118.26 953.6C118.52 954.09 118.64 955.07 118.64 956.56C118.64 957.84 118.38 958.84 117.87 959.56C117.36 960.28 116.51 960.71 115.34 960.86C114.26 961.01 113.16 961.09 112.03 961.09Z" fill="#53392F"/>
<path d="M128.46 915.09C126.67 915.09 125.27 914.64 124.27 913.75C123.27 912.86 122.77 911.61 122.77 910.03C122.77 908.39 123.27 907.14 124.27 906.27C125.27 905.4 126.66 904.96 128.46 904.96C132.25 904.96 134.14 906.65 134.14 910.03C134.15 913.4 132.25 915.09 128.46 915.09ZM128.46 960.85C126.92 960.85 125.75 960.39 124.93 959.47C124.11 958.55 123.7 957.27 123.7 955.63V927.45C123.7 923.97 125.29 922.23 128.46 922.23C131.69 922.23 133.3 923.97 133.3 927.45V955.63C133.3 957.27 132.89 958.55 132.07 959.47C131.25 960.4 130.05 960.85 128.46 960.85Z" fill="#53392F"/>
<path d="M158.49 960.93C155.93 960.93 154.04 959.57 152.81 956.86L140.6 928.53C139.88 926.84 139.87 925.36 140.56 924.08C141.25 922.8 142.65 922.16 144.75 922.16C145.93 922.16 146.87 922.43 147.59 922.97C148.31 923.51 148.95 924.52 149.51 926L158.72 949.04L168.24 925.93C168.8 924.5 169.46 923.51 170.2 922.97C170.94 922.43 171.95 922.16 173.23 922.16C174.87 922.16 176.02 922.8 176.69 924.08C177.35 925.36 177.33 926.82 176.61 928.46L164.17 956.87C163.04 959.58 161.15 960.93 158.49 960.93Z" fill="#53392F"/>
<path d="M201.49 961.09C197.24 961.09 193.58 960.3 190.51 958.71C187.44 957.12 185.07 954.87 183.41 951.95C181.75 949.03 180.91 945.58 180.91 941.58C180.91 937.69 181.72 934.29 183.33 931.37C184.94 928.45 187.17 926.16 190.01 924.5C192.85 922.84 196.09 922 199.72 922C205.04 922 209.25 923.69 212.35 927.07C215.45 930.45 217 935.06 217 940.89C217 942.78 215.77 943.73 213.31 943.73H190.12C190.84 950.44 194.68 953.79 201.64 953.79C202.97 953.79 204.47 953.62 206.13 953.29C207.79 952.96 209.37 952.38 210.85 951.56C212.18 950.79 213.31 950.55 214.23 950.83C215.15 951.11 215.8 951.66 216.19 952.48C216.57 953.3 216.62 954.21 216.34 955.21C216.06 956.21 215.33 957.07 214.15 957.78C212.36 958.91 210.3 959.74 207.97 960.28C205.65 960.82 203.49 961.09 201.49 961.09ZM200.11 928.53C197.29 928.53 195.02 929.4 193.28 931.14C191.54 932.88 190.49 935.24 190.13 938.2H209.02C208.81 935.08 207.96 932.68 206.45 931.02C204.93 929.36 202.82 928.53 200.11 928.53Z" fill="#53392F"/>
<path d="M229.52 960.93C226.24 960.93 224.61 959.29 224.61 956.02V926.99C224.61 923.77 226.17 922.15 229.29 922.15C232.41 922.15 233.97 923.76 233.97 926.99V929.37C235.81 924.97 239.75 922.51 245.8 922C248 921.74 249.23 923 249.49 925.76C249.75 928.47 248.41 929.98 245.5 930.29L243.81 930.44C237.51 931.05 234.36 934.28 234.36 940.11V956.01C234.35 959.29 232.74 960.93 229.52 960.93Z" fill="#53392F"/>
<path d="M266.53 974.75C264.79 974.75 263.59 974.11 262.92 972.83C262.25 971.55 262.28 970.09 263 968.45L267.38 958.77L254.25 928.52C253.53 926.83 253.53 925.35 254.25 924.07C254.97 922.79 256.37 922.15 258.47 922.15C259.65 922.15 260.59 922.42 261.31 922.96C262.03 923.5 262.67 924.51 263.23 925.99L272.44 949.03L281.88 925.92C282.44 924.49 283.11 923.5 283.88 922.96C284.65 922.42 285.67 922.15 286.95 922.15C288.59 922.15 289.74 922.79 290.41 924.07C291.07 925.35 291.05 926.81 290.33 928.45L271.67 971.07C271 972.5 270.29 973.48 269.52 973.99C268.75 974.5 267.76 974.75 266.53 974.75Z" fill="#53392F"/>
<path d="M324.04 960.93C320.76 960.93 319.13 959.24 319.13 955.86V911.17C319.13 907.84 320.79 906.18 324.12 906.18H342.63C348.57 906.18 353.15 907.67 356.38 910.63C359.61 913.6 361.22 917.75 361.22 923.07C361.22 928.4 359.61 932.55 356.38 935.55C353.15 938.54 348.57 940.04 342.63 940.04H328.96V955.86C328.95 959.24 327.32 960.93 324.04 960.93ZM328.95 932.29H341.08C348.14 932.29 351.68 929.22 351.68 923.08C351.68 916.99 348.15 913.94 341.08 913.94H328.95V932.29Z" fill="#53392F"/>
<path d="M378.87 961.09C376.16 961.09 373.74 960.56 371.61 959.52C369.49 958.47 367.82 957.05 366.62 955.26C365.42 953.47 364.82 951.45 364.82 949.19C364.82 946.43 365.54 944.24 366.97 942.62C368.4 941.01 370.73 939.84 373.96 939.13C377.19 938.41 381.51 938.05 386.94 938.05H389.63V936.44C389.63 933.88 389.07 932.04 387.94 930.91C386.81 929.79 384.92 929.22 382.26 929.22C380.77 929.22 379.18 929.4 377.46 929.76C375.74 930.12 373.94 930.73 372.05 931.6C370.82 932.16 369.8 932.23 368.98 931.79C368.16 931.36 367.61 930.66 367.33 929.72C367.05 928.77 367.1 927.81 367.48 926.84C367.86 925.87 368.64 925.15 369.82 924.69C372.17 923.72 374.44 923.03 376.62 922.62C378.8 922.21 380.78 922.01 382.57 922.01C388.05 922.01 392.12 923.28 394.78 925.81C397.44 928.34 398.77 932.27 398.77 937.6V956.03C398.77 959.31 397.28 960.94 394.32 960.94C391.3 960.94 389.79 959.3 389.79 956.03V954.34C388.92 956.44 387.54 958.09 385.64 959.29C383.73 960.48 381.48 961.09 378.87 961.09ZM380.86 954.48C383.37 954.48 385.45 953.61 387.12 951.87C388.78 950.13 389.62 947.93 389.62 945.27V943.58H387.01C382.2 943.58 378.86 943.95 376.99 944.69C375.12 945.43 374.19 946.78 374.19 948.72C374.19 950.41 374.78 951.79 375.96 952.87C377.13 953.94 378.76 954.48 380.86 954.48Z" fill="#53392F"/>
<path d="M413.42 960.93C410.14 960.93 408.51 959.29 408.51 956.02V926.99C408.51 923.77 410.07 922.15 413.19 922.15C416.31 922.15 417.87 923.76 417.87 926.99V929.37C419.71 924.97 423.65 922.51 429.7 922C431.9 921.74 433.13 923 433.39 925.76C433.65 928.47 432.31 929.98 429.4 930.29L427.71 930.44C421.41 931.05 418.26 934.28 418.26 940.11V956.01C418.26 959.29 416.65 960.93 413.42 960.93Z" fill="#53392F"/>
<path d="M457.96 961.09C448.03 961.09 443.06 956.18 443.06 946.35V929.99H439.07C436.51 929.99 435.23 928.79 435.23 926.38C435.23 923.97 436.51 922.77 439.07 922.77H443.06V915.78C443.06 912.56 444.67 910.94 447.9 910.94C451.07 910.94 452.66 912.55 452.66 915.78V922.77H460.8C463.36 922.77 464.64 923.97 464.64 926.38C464.64 928.79 463.36 929.99 460.8 929.99H452.66V945.81C452.66 948.27 453.2 950.11 454.27 951.34C455.34 952.57 457.08 953.18 459.49 953.18C460.36 953.18 461.13 953.1 461.79 952.95C462.45 952.8 463.04 952.7 463.56 952.64C464.17 952.59 464.69 952.78 465.1 953.22C465.51 953.66 465.71 954.54 465.71 955.87C465.71 956.9 465.54 957.8 465.21 958.6C464.88 959.39 464.28 959.94 463.41 960.25C462.74 960.45 461.87 960.65 460.8 960.83C459.72 961 458.78 961.09 457.96 961.09Z" fill="#53392F"/>
<path d="M475 960.93C471.83 960.93 470.24 959.29 470.24 956.02V926.99C470.24 923.77 471.8 922.15 474.92 922.15C478.04 922.15 479.6 923.76 479.6 926.99V928.6C480.88 926.45 482.61 924.81 484.78 923.69C486.96 922.57 489.4 922 492.11 922C500.97 922 505.39 927.14 505.39 937.43V956.01C505.39 959.29 503.8 960.92 500.63 960.92C497.4 960.92 495.79 959.28 495.79 956.01V937.9C495.79 934.98 495.24 932.86 494.14 931.53C493.04 930.2 491.34 929.53 489.03 929.53C486.21 929.53 483.97 930.41 482.31 932.18C480.65 933.95 479.81 936.29 479.81 939.21V956.03C479.84 959.29 478.23 960.93 475 960.93Z" fill="#53392F"/>
<path d="M533.67 961.09C529.42 961.09 525.76 960.3 522.69 958.71C519.62 957.12 517.25 954.87 515.59 951.95C513.93 949.03 513.09 945.58 513.09 941.58C513.09 937.69 513.9 934.29 515.51 931.37C517.12 928.45 519.35 926.16 522.19 924.5C525.03 922.84 528.27 922 531.9 922C537.22 922 541.43 923.69 544.53 927.07C547.63 930.45 549.18 935.06 549.18 940.89C549.18 942.78 547.95 943.73 545.49 943.73H522.3C523.02 950.44 526.86 953.79 533.82 953.79C535.15 953.79 536.65 953.62 538.31 953.29C539.97 952.96 541.55 952.38 543.03 951.56C544.36 950.79 545.49 950.55 546.41 950.83C547.33 951.11 547.98 951.66 548.37 952.48C548.75 953.3 548.8 954.21 548.52 955.21C548.24 956.21 547.51 957.07 546.33 957.78C544.54 958.91 542.48 959.74 540.15 960.28C537.83 960.82 535.67 961.09 533.67 961.09ZM532.29 928.53C529.47 928.53 527.2 929.4 525.46 931.14C523.72 932.88 522.67 935.24 522.31 938.2H541.2C540.99 935.08 540.14 932.68 538.63 931.02C537.11 929.36 535 928.53 532.29 928.53Z" fill="#53392F"/>
<path d="M561.7 960.93C558.42 960.93 556.79 959.29 556.79 956.02V926.99C556.79 923.77 558.35 922.15 561.47 922.15C564.59 922.15 566.15 923.76 566.15 926.99V929.37C567.99 924.97 571.93 922.51 577.98 922C580.18 921.74 581.41 923 581.67 925.76C581.93 928.47 580.59 929.98 577.68 930.29L575.99 930.44C569.69 931.05 566.54 934.28 566.54 940.11V956.01C566.53 959.29 564.92 960.93 561.7 960.93Z" fill="#53392F"/>
</g>
<defs>
<clipPath id="clip0">
<rect width="581.69" height="974.75" fill="white"/>
</clipPath>
</defs>
</svg>
