<svg width="869" height="770" viewBox="0 0 869 770" fill="none" xmlns="http://www.w3.org/2000/svg">
<g clip-path="url(#clip0)">
<path d="M85.0805 141.65C85.0805 141.65 232.151 -67.68 537.951 22.61C843.75 112.9 746.18 345.88 746.18 345.88L520.47 370.64L472.42 383.75L403.98 427.44L370.49 497.34L363.21 625.48L201.57 663.34L13.7305 468.2L57.4205 239.92L85.0805 141.65Z" fill="#11C987"/>
<path d="M797.16 284.72C797.16 284.72 803.87 186.11 731.16 151.87C731.16 151.87 399.62 308.02 379.23 386.66C358.84 465.29 355.09 573.05 355.09 573.05L398.89 433.98L472.43 383.74L706.15 331.67L797.16 284.72Z" fill="#53392F"/>
<path d="M797.16 284.72L860.97 328.16C874.03 337.05 868.74 357.41 853.01 358.82L511.03 389.56C511.03 389.56 386.53 391.74 382.16 535.91C377.79 680.08 347.93 754.47 265.66 760.96L318.81 671.34L354.85 591.61C354.85 591.61 349.39 431.07 419.29 396.12C489.19 361.17 797.16 284.72 797.16 284.72Z" fill="#1A1A1A"/>
<path d="M85.0802 141.65C85.0802 141.65 52.3203 518.44 354.84 591.61C354.84 591.61 369.04 791.47 183.37 767.44C-2.29976 743.41 -67.8198 404.85 85.0802 141.65Z" fill="#007A54"/>
<path d="M186.65 674.61C206.555 674.61 222.69 658.474 222.69 638.57C222.69 618.666 206.555 602.53 186.65 602.53C166.746 602.53 150.61 618.666 150.61 638.57C150.61 658.474 166.746 674.61 186.65 674.61Z" fill="#53392F"/>
<path d="M240.61 222.31C240.61 222.31 261.55 233.23 268.23 238.75C274.91 244.27 283.26 287.03 283.26 287.03L274.96 408.92L282.45 445.92L256.33 489.05L222.7 505.91L124.05 499.9L103.19 467V387.97L107.18 289.23L116.35 238.76L240.61 222.31Z" fill="#F8F6DF"/>
<path d="M245.39 491.09C233.92 492.71 222.45 492.36 210.97 490.03C199.48 487.7 188.34 483.02 177.54 475.98C166.74 468.95 156.99 458.82 148.29 445.6L131.2 468.68C128.5 479.02 126.34 488.22 124.71 496.28C124.46 497.54 124.24 498.74 124.04 499.92C141.84 526.93 159.25 550.92 171.17 566.86C178.9 577.2 194.39 577.2 202.12 566.86C215.62 548.81 236.14 520.45 256.32 489.06C252.76 489.88 249.12 490.56 245.39 491.09Z" fill="#53392F"/>
<path d="M253.95 274.61C248.13 287.42 241.57 300.42 234.28 313.63C226.98 326.83 219.29 340.01 211.19 353.17C203.09 366.33 194.69 379.34 186 392.21C177.31 405.08 168.65 417.47 160.03 429.39C169.6 438.72 179.44 445.62 189.56 450.11C199.68 454.6 209.8 457.32 219.92 458.28C230.04 459.24 240.07 458.66 250 456.55C259.93 454.44 269.42 451.48 278.48 447.67C279.74 447.14 281.07 446.56 282.43 445.95C303.79 408.06 320.24 370.47 320.24 344.58C320.24 301.51 299.85 263.21 268.21 238.77C264.27 250.41 259.52 262.35 253.95 274.61Z" fill="#007A54"/>
<path d="M109.69 465.07L111.4 456.29C114.35 441.7 117.43 425.74 120.64 408.42C123.85 391.11 126.55 373.58 128.73 355.86C130.91 338.13 132.28 320.72 132.83 303.6C133.38 286.49 132.52 270.73 130.22 256.35L130.14 256.15C130.02 255.13 130.73 254.29 132.26 253.65C133.79 253.01 135.74 252.53 138.12 252.22C140.5 251.91 143.06 251.75 145.8 251.75C148.54 251.75 151.18 251.87 153.71 252.1C156.24 252.34 158.47 252.71 160.4 253.2C162.33 253.69 163.53 254.3 163.99 255.03C166.03 265.84 166.95 277.42 166.75 289.78C166.55 302.15 165.61 314.82 163.94 327.8C162.27 340.78 160.05 353.84 157.27 366.98C154.49 380.12 151.49 392.9 148.25 405.31C156.61 391.66 164.84 377.69 172.93 363.38C181.02 349.08 188.74 334.93 196.09 320.94C203.44 306.95 210.22 293.35 216.42 280.15C222.62 266.95 228.09 254.52 232.82 242.86C235.77 235.59 238.36 228.74 240.6 222.31C224.1 215.02 205.85 210.96 186.64 210.96C112.85 210.96 53.04 270.78 53.04 344.56C53.04 376.15 77.54 425.16 105.55 470.87L109.69 465.07Z" fill="#00B37B"/>
</g>
<defs>
<clipPath id="clip0">
<rect width="868.34" height="769.45" fill="white"/>
</clipPath>
</defs>
</svg>
